<?xml version="1.0" encoding="UTF-8" standalone="no"?>
<!DOCTYPE svg PUBLIC "-//W3C//DTD SVG 1.1//EN" "http://www.w3.org/Graphics/SVG/1.1/DTD/svg11.dtd">
<svg xmlns="http://www.w3.org/2000/svg" version="1.1" viewBox="-83.00 -80.00 1612.00 1612.00">
  <path fill="#cccccc" d="
M 722.41 1447.44
L 0.77 725.81
A 0.42 0.42 0.0 0 1 0.77 725.21
L 722.42 3.55
A 0.42 0.42 0.0 0 1 723.02 3.55
L 1444.66 725.19
A 0.42 0.42 0.0 0 1 1444.66 725.79
L 723.01 1447.44
A 0.42 0.42 0.0 0 1 722.41 1447.44
Z" />
  <path fill="#eeeeee" d="
M 722.5 1000
L 1050 620
L 700 230
L 600 260
L 500 290
L 400 400
L 450 620
L 450 700
Z" />
  <g fill="#262626">
    <path d="
M 806.47 211.78
C 921.26 236.92 1019.94 313.13 1076.58 415.19
Q 1104.37 465.27 1116.89 522.06
Q 1123.12 550.75 1125.52 580.03
Q 1126.33 589.89 1126.27 599.48
Q 1126.16 619.11 1126.18 637.31
C 1126.19 643.39 1125.62 649.54 1125.38 655.74
Q 1125.27 658.67 1124.33 661.25
Q 1123.38 663.84 1123.63 666.93
Q 1123.87 669.80 1123.41 673.09
Q 1116.20 725.85 1096.66 777.10
Q 1083.38 811.96 1064.85 846.63
Q 1044.20 885.29 1019.04 921.81
Q 949.31 1022.99 865.09 1114.96
Q 812.43 1172.46 757.45 1227.16
Q 750.26 1234.31 742.88 1239.68
Q 738.00 1243.23 732.61 1245.60
C 724.33 1249.24 715.53 1248.96 708.26 1243.08
Q 700.86 1237.09 694.27 1230.87
Q 541.15 1086.32 422.62 914.98
Q 417.11 907.01 411.37 898.04
Q 374.62 840.57 350.85 780.29
Q 343.88 762.62 338.35 744.77
C 317.76 678.41 314.09 607.84 326.07 539.30
Q 326.08 539.23 327.82 530.75
Q 328.78 526.05 329.34 520.87
Q 330.98 516.00 332.35 510.51
Q 334.64 501.32 334.99 500.05
Q 345.81 461.65 363.44 427.18
Q 383.58 387.80 413.06 352.08
C 419.48 344.30 426.45 336.05 433.50 329.11
Q 460.47 302.58 480.39 286.57
Q 513.89 259.66 556.43 240.18
Q 596.89 221.66 638.48 212.36
Q 664.11 206.75 690.25 204.61
Q 693.99 204.30 697.76 204.43
C 701.14 204.55 704.34 203.57 707.76 203.41
Q 757.65 201.10 806.47 211.78
Z
M 690.03 258.26
Q 670.22 261.06 661.63 262.88
Q 616.79 272.38 575.54 292.32
Q 548.06 305.60 525.00 322.22
Q 479.67 354.91 445.84 400.69
Q 438.01 409.42 433.10 416.83
Q 423.87 430.78 414.77 448.77
Q 414.24 449.81 413.67 450.81
Q 413.12 451.80 412.61 452.85
Q 409.89 458.48 407.31 464.28
Q 383.68 517.33 377.55 572.24
Q 370.03 639.54 385.31 705.44
Q 395.20 748.07 412.78 786.29
Q 429.30 822.21 450.95 858.71
Q 456.08 867.36 461.89 875.95
Q 525.06 969.37 599.78 1053.99
Q 657.43 1119.28 719.38 1177.34
Q 721.31 1179.15 723.56 1180.63
Q 723.98 1180.91 724.49 1180.83
Q 725.84 1180.63 726.87 1179.63
Q 740.99 1165.96 754.21 1152.34
Q 764.90 1141.33 768.16 1138.00
Q 811.02 1094.31 851.40 1048.93
Q 887.98 1007.82 920.96 965.75
Q 955.90 921.18 984.45 876.56
Q 999.61 852.87 1012.34 829.53
Q 1021.59 812.58 1030.43 793.24
Q 1046.80 757.39 1056.58 723.21
Q 1073.67 663.45 1071.41 602.67
Q 1068.56 526.31 1035.54 457.35
Q 1031.13 448.14 1026.27 439.45
Q 980.57 357.69 900.60 308.59
Q 892.12 303.38 883.25 298.66
Q 844.42 277.99 803.24 266.85
Q 747.83 251.87 690.03 258.26
Z" />
    <path d="
M 885.47 835.99
Q 827.54 878.86 757.74 887.89
Q 693.06 896.27 631.92 874.53
Q 591.37 860.12 555.65 832.39
Q 547.61 826.15 540.39 819.49
Q 486.39 769.65 464.66 700.24
Q 448.50 648.62 452.67 593.26
Q 457.02 535.56 484.67 485.25
Q 502.70 452.45 528.38 426.07
Q 577.54 375.57 643.70 354.82
Q 680.07 343.41 719.22 343.18
C 755.89 342.96 792.40 348.83 826.34 362.07
C 831.58 364.12 836.63 366.47 841.73 368.78
C 847.64 371.47 853.53 374.69 859.23 377.94
Q 873.27 385.95 886.68 396.29
Q 919.53 421.63 945.43 457.91
Q 965.29 485.74 977.26 518.91
C 997.92 576.21 999.55 639.49 982.38 697.21
Q 967.96 745.69 936.94 785.74
Q 914.89 814.22 885.47 835.99
Z
M 701.24 396.75
C 650.66 402.59 602.65 424.77 566.79 461.20
C 531.83 496.70 510.43 542.95 505.77 592.54
A 1.77 1.76 89.1 0 0 507.75 594.46
Q 519.42 593.00 531.43 593.63
C 544.70 594.32 555.78 600.44 556.39 615.21
C 556.73 623.18 552.12 630.14 545.53 634.44
C 540.43 637.77 532.22 637.92 526.18 637.77
Q 517.82 637.56 509.29 637.36
Q 508.12 637.33 506.86 637.52
Q 506.18 637.62 506.25 638.31
Q 511.34 691.72 539.34 736.53
C 557.90 766.21 584.35 791.07 614.21 807.86
Q 653.17 829.76 698.84 834.68
Q 700.14 834.82 701.47 834.76
Q 702.67 834.71 702.68 833.50
Q 702.79 819.98 702.71 806.55
C 702.68 801.71 703.33 796.11 705.69 791.95
C 709.90 784.49 718.39 783.05 726.48 783.53
C 744.28 784.60 746.43 801.90 746.15 815.69
Q 745.96 825.15 745.87 833.89
A 0.91 0.90 -2.0 0 0 746.85 834.80
C 776.58 832.24 806.35 823.34 832.17 808.03
Q 860.61 791.16 882.19 768.96
C 885.52 765.53 888.70 761.87 891.75 758.23
C 919.79 724.78 934.94 684.60 940.16 640.51
C 940.47 637.89 938.78 636.43 936.26 636.69
Q 928.66 637.46 919.81 637.93
Q 912.75 638.31 906.24 636.76
Q 895.12 634.10 891.57 623.19
C 888.32 613.20 891.58 601.55 901.27 596.68
C 907.20 593.70 915.37 593.40 922.16 593.50
Q 930.50 593.63 938.96 594.09
A 1.92 1.92 0.0 0 0 940.97 591.97
Q 933.72 525.92 892.39 475.11
C 881.36 461.55 867.67 448.63 854.12 438.65
Q 806.25 403.39 746.29 396.63
Q 745.39 396.53 745.29 397.44
Q 745.17 398.53 745.22 399.61
C 745.66 411.03 746.71 422.78 745.44 434.26
Q 745.02 438.03 743.12 440.97
C 737.72 449.30 727.75 453.74 717.92 452.14
C 709.21 450.71 703.26 444.29 702.42 435.44
C 701.37 424.23 702.27 410.60 702.77 398.17
Q 702.84 396.56 701.24 396.75
Z" />
    <path d="
M 751.68 628.36
Q 746.06 633.74 739.85 638.50
C 727.32 648.10 710.28 646.11 700.51 633.88
C 691.03 622.01 692.00 609.95 696.56 596.35
Q 698.41 590.84 698.40 585.40
C 698.33 563.17 698.30 541.57 698.69 520.24
C 698.94 506.23 703.37 495.74 718.57 492.86
C 726.17 491.42 734.84 493.61 740.82 498.72
C 746.99 503.99 748.37 511.79 748.40 519.68
Q 748.50 540.58 748.53 565.33
Q 748.53 566.22 748.70 567.08
Q 748.92 568.17 749.87 567.61
Q 785.33 546.71 822.38 524.70
Q 830.25 520.02 835.98 517.52
Q 847.36 512.54 857.75 518.83
C 865.09 523.28 870.03 531.41 870.32 539.94
C 870.78 553.14 861.48 561.35 850.84 567.58
Q 813.17 589.63 771.47 613.99
C 763.81 618.47 757.77 622.54 751.68 628.36
Z" />
  </g>
  <path fill="#cc9900" d="
M 722.41 1447.44
L 0.77 725.81
A 0.42 0.42 0.0 0 1 0.77 725.21
L 722.42 3.55
A 0.42 0.42 0.0 0 1 723.02 3.55
L 1444.66 725.19
A 0.42 0.42 0.0 0 1 1444.66 725.79
L 723.01 1447.44
A 0.42 0.42 0.0 0 1 722.41 1447.44
Z
M 638.48 212.36
Q 596.89 221.66 556.43 240.18
Q 513.89 259.66 480.39 286.57
Q 460.47 302.58 433.50 329.11
C 426.45 336.05 419.48 344.30 413.06 352.08
Q 383.58 387.80 363.44 427.18
Q 345.81 461.65 334.99 500.05
Q 334.64 501.32 332.35 510.51
Q 330.98 516.00 329.34 520.87
L 125.09 725.07
Q 124.67 725.50 125.09 725.92
L 722.50 1323.33
A 0.28 0.28 0.0 0 0 722.89 1323.33
L 1320.46 725.75
A 0.40 0.39 45.5 0 0 1320.46 725.20
L 1116.89 522.06
Q 1104.37 465.27 1076.58 415.19
C 1019.94 313.13 921.26 236.92 806.47 211.78
Q 806.64 211.70 806.64 211.52
Q 806.64 211.39 806.55 211.31
Q 764.74 169.55 723.05 127.82
A 0.49 0.48 -44.6 0 0 722.36 127.82
Q 680.52 169.61 638.52 211.66
Q 638.40 211.78 638.40 211.95
Q 638.39 212.13 638.48 212.36
Z" />
  <path fill="#a9d18e" d="
M 445.84 400.69
C 449.59 409.17 457.16 418.13 466.97 414.27
Q 472.59 412.06 478.09 406.72
C 483.42 401.54 488.00 395.73 492.65 390.05
Q 496.44 385.43 501.36 380.49
Q 563.21 318.42 648.98 297.21
Q 663.76 293.55 679.02 290.10
C 684.96 288.76 692.00 286.66 694.34 280.77
C 695.23 278.53 695.29 274.43 694.93 272.48
Q 693.80 266.34 692.42 259.68
Q 692.32 259.18 691.89 258.90
Q 691.11 258.39 690.03 258.26
Q 747.83 251.87 803.24 266.85
Q 844.42 277.99 883.25 298.66
Q 892.12 303.38 900.60 308.59
Q 980.57 357.69 1026.27 439.45
Q 1031.13 448.14 1035.54 457.35
Q 1068.56 526.31 1071.41 602.67
Q 1073.67 663.45 1056.58 723.21
Q 1046.80 757.39 1030.43 793.24
Q 1021.59 812.58 1012.34 829.53
Q 999.61 852.87 984.45 876.56
Q 955.90 921.18 920.96 965.75
Q 887.98 1007.82 851.40 1048.93
Q 811.02 1094.31 768.16 1138.00
Q 764.90 1141.33 754.21 1152.34
Q 740.99 1165.96 726.87 1179.63
Q 725.84 1180.63 724.49 1180.83
Q 723.98 1180.91 723.56 1180.63
Q 721.31 1179.15 719.38 1177.34
Q 657.43 1119.28 599.78 1053.99
Q 525.06 969.37 461.89 875.95
Q 456.08 867.36 450.95 858.71
Q 429.30 822.21 412.78 786.29
Q 395.20 748.07 385.31 705.44
Q 370.03 639.54 377.55 572.24
Q 383.68 517.33 407.31 464.28
Q 409.89 458.48 412.61 452.85
Q 413.12 451.80 413.67 450.81
Q 414.24 449.81 414.77 448.77
Q 423.87 430.78 433.10 416.83
Q 438.01 409.42 445.84 400.69
Z
M 885.47 835.99
Q 914.89 814.22 936.94 785.74
Q 967.96 745.69 982.38 697.21
C 999.55 639.49 997.92 576.21 977.26 518.91
Q 965.29 485.74 945.43 457.91
Q 919.53 421.63 886.68 396.29
Q 873.27 385.95 859.23 377.94
C 853.53 374.69 847.64 371.47 841.73 368.78
C 836.63 366.47 831.58 364.12 826.34 362.07
C 792.40 348.83 755.89 342.96 719.22 343.18
Q 680.07 343.41 643.70 354.82
Q 577.54 375.57 528.38 426.07
Q 502.70 452.45 484.67 485.25
Q 457.02 535.56 452.67 593.26
Q 448.50 648.62 464.66 700.24
Q 486.39 769.65 540.39 819.49
Q 547.61 826.15 555.65 832.39
Q 591.37 860.12 631.92 874.53
Q 693.06 896.27 757.74 887.89
Q 827.54 878.86 885.47 835.99
Z" />
</svg>